<?xml version="1.0" standalone="no"?>
<!DOCTYPE svg PUBLIC "-//W3C//DTD SVG 20010904//EN"
 "http://www.w3.org/TR/2001/REC-SVG-20010904/DTD/svg10.dtd">
<svg version="1.0" xmlns="http://www.w3.org/2000/svg"
 width="1280.000000pt" height="1280.000000pt" viewBox="0 0 1280.000000 1280.000000"
 preserveAspectRatio="xMidYMid meet">
<metadata>
Created by potrace 1.15, written by Peter Selinger 2001-2017
</metadata>
<g transform="translate(0.000000,1280.000000) scale(0.100000,-0.100000)"
fill="#000000" stroke="none">
<path d="M6095 12794 c-1244 -66 -2408 -470 -3405 -1180 -1243 -886 -2129
-2185 -2499 -3662 -77 -306 -134 -645 -168 -997 -24 -252 -24 -858 0 -1110 81
-834 282 -1553 638 -2276 830 -1684 2364 -2922 4187 -3378 306 -77 645 -134
997 -168 252 -24 858 -24 1110 0 834 81 1553 282 2276 638 1784 879 3069 2556
3448 4499 86 439 115 755 115 1240 0 403 -11 571 -60 910 -216 1510 -965 2892
-2110 3897 -1031 904 -2282 1440 -3659 1568 -162 15 -716 27 -870 19z m763
-1040 c1879 -153 3558 -1309 4381 -3016 290 -601 456 -1206 517 -1880 20 -230
20 -686 0 -916 -115 -1281 -655 -2441 -1556 -3342 -901 -900 -2061 -1441
-3342 -1556 -230 -20 -686 -20 -916 0 -673 61 -1280 227 -1880 517 -1603 773
-2728 2306 -2982 4066 -70 488 -70 1058 0 1546 254 1757 1376 3289 2975 4063
882 426 1816 599 2803 518z"/>
<path d="M5235 10216 c-55 -26 -94 -60 -128 -115 l-22 -36 -5 -2115 -5 -2115
-520 -5 c-369 -4 -528 -8 -546 -17 -125 -56 -179 -230 -112 -362 18 -36 428
-536 1177 -1436 632 -759 1158 -1388 1170 -1398 87 -75 225 -75 312 0 12 10
538 639 1170 1398 749 900 1159 1400 1177 1436 67 132 13 306 -112 362 -18 9
-177 13 -546 17 l-520 5 -5 2115 -5 2115 -22 36 c-34 55 -73 89 -128 115 l-50
24 -1115 0 -1115 0 -50 -24z"/>
</g>
</svg>
